<?xml version="1.0" encoding="UTF-8"?>
<svg id="Layer_1" data-name="Layer 1" xmlns="http://www.w3.org/2000/svg" viewBox="0 0 128 128">
  <defs>
    <style>
      .cls-1 {
        fill: #3667b1;
      }
    </style>
  </defs>
  <path class="cls-1" d="M88.79,54.59v-26.77c0-.57-.3-1.1-.8-1.39l-23.19-13.39c-.5-.29-1.1-.29-1.6,0l-23.19,13.39c-.5.29-.8.82-.8,1.39v26.77c0,.57.3,1.1.8,1.39l23.19,13.38c.5.29,1.1.29,1.6,0l23.19-13.38c.5-.29.8-.82.8-1.39h0ZM64,39.36l-19.99-11.54,19.99-11.54,19.99,11.54-19.99,11.54ZM85.59,53.66l-19.99,11.54v-23.08l19.99-11.54v23.07ZM61.6,72.02l-23.19-13.38c-.5-.29-1.1-.29-1.6,0l-23.19,13.38c-.5.29-.8.82-.8,1.39v26.77c0,.57.3,1.1.8,1.39l23.19,13.39c.5.29,1.1.29,1.6,0l23.19-13.39c.5-.29.8-.82.8-1.39v-26.77c0-.57-.3-1.1-.8-1.39h0ZM37.62,84.95l-19.99-11.54,19.99-11.54,19.99,11.54-19.99,11.54ZM59.2,99.26l-19.99,11.53v-23.08l19.99-11.54v23.08ZM114.37,72.02l-23.19-13.38c-.5-.29-1.1-.29-1.6,0l-23.19,13.38c-.5.29-.8.82-.8,1.39v26.77c0,.57.3,1.1.8,1.39l23.19,13.39c.5.29,1.1.29,1.6,0l23.19-13.39c.5-.29.8-.82.8-1.39v-26.77c0-.57-.3-1.1-.8-1.39h0ZM90.39,84.95l-19.99-11.54,19.99-11.54,19.99,11.54-19.99,11.54ZM111.97,99.26l-19.99,11.53v-23.08l19.99-11.54v23.08Z"/>
</svg>