<?xml version="1.0" encoding="UTF-8"?>
<svg id="Layer_1" data-name="Layer 1" xmlns="http://www.w3.org/2000/svg" viewBox="0 0 128 128">
  <defs>
    <style>
      .cls-1 {
        fill: #3667b1;
        fill-rule: evenodd;
      }
    </style>
  </defs>
  <path class="cls-1" d="M57.24,28.47c-.7,0-1.27-.57-1.27-1.27s.57-1.27,1.27-1.27c9.01,0,17.4,2.66,24.43,7.24l-1.84,1.84c-6.54-4.14-14.28-6.53-22.59-6.53h0ZM68.9,66.87l-11.66,3.89,3.89-11.66,7.77,7.77h0ZM113.62,14.38c-2.63-2.63-6.93-2.63-9.56,0l-2.99,2.99,9.56,9.56,2.99-2.99c2.63-2.63,2.63-6.93,0-9.56h0ZM99.27,19.17l-37.23,37.23,3.88,3.88,18.62-18.61c.5-.5,1.3-.5,1.8,0s.5,1.3,0,1.8l-18.61,18.61,3.88,3.88,37.23-37.23-9.56-9.56ZM52.25,44.91c-3.56.68-6.87,2.08-9.76,4.04l-4.18-4.18c-.67-.67-1.76-.67-2.43,0l-4.63,4.63c-.67.67-.67,1.76,0,2.43l4.18,4.18c-1.96,2.89-3.36,6.2-4.04,9.76h-5.91c-.95,0-1.72.77-1.72,1.72v6.54c0,.95.77,1.72,1.72,1.72h5.91c.68,3.56,2.08,6.87,4.04,9.76l-4.18,4.18c-.67.67-.67,1.76,0,2.43l4.63,4.63c.67.67,1.76.67,2.43,0l4.18-4.18c2.89,1.96,6.2,3.36,9.76,4.04v5.91c0,.95.77,1.72,1.72,1.72h6.54c.95,0,1.72-.77,1.72-1.72v-5.91c3.56-.68,6.87-2.08,9.76-4.04l4.18,4.18c.67.67,1.76.67,2.43,0l4.63-4.63c.67-.67.67-1.76,0-2.43l-4.18-4.18c1.96-2.89,3.36-6.2,4.04-9.76h5.91c.95,0,1.72-.77,1.72-1.72v-6.54c0-.95-.77-1.72-1.72-1.72h-5.91c-.39-2.04-1.02-4-1.85-5.84l-9.1,9.1c1.03,8.93-5.93,16.74-14.9,16.74-8.28,0-15-6.72-15-15,0-8.97,7.81-15.93,16.74-14.9l9.1-9.1c-1.84-.83-3.8-1.46-5.84-1.85v-5.91c0-.95-.77-1.72-1.72-1.72h-6.54c-.95,0-1.72.77-1.72,1.72v5.91h0ZM94.84,46.33c4.58,7.03,7.24,15.42,7.24,24.43,0,16.46-8.99,31.54-23.43,39.4l4.1,1.1c.68.18,1.08.88.9,1.56s-.88,1.08-1.56.9l-7.35-1.97c-.68-.18-1.08-.88-.9-1.56l1.97-7.35c.18-.68.88-1.08,1.56-.9s1.08.88.9,1.56l-1.25,4.65c21.98-11.65,29-39.4,15.98-59.98l1.84-1.84ZM31.74,30.27l4.1,1.1c-14.44,7.86-23.43,22.94-23.43,39.39,0,24.76,20.07,44.83,44.83,44.83.7,0,1.27-.57,1.27-1.27s-.57-1.27-1.27-1.27c-23.35,0-42.29-18.93-42.29-42.29,0-15.7,8.65-30.04,22.51-37.39l-1.25,4.65c-.18.68.22,1.38.9,1.56s1.38-.22,1.56-.9l1.97-7.35c.18-.68-.22-1.38-.9-1.56l-7.35-1.97c-.68-.18-1.38.22-1.56.9s.22,1.38.9,1.56h0Z"/>
</svg>