<?xml version="1.0" encoding="UTF-8"?>
<svg id="Layer_1" data-name="Layer 1" xmlns="http://www.w3.org/2000/svg" viewBox="0 0 128 128">
  <defs>
    <style>
      .cls-1 {
        fill: #3667b1;
      }
    </style>
  </defs>
  <path class="cls-1" d="M101.47,15.09H26.19c-6.23,0-11.29,5.07-11.29,11.29v75.28c0,6.23,5.07,11.29,11.29,11.29h75.28c6.23,0,11.29-5.07,11.29-11.29V26.39c0-6.22-5.07-11.29-11.29-11.29ZM105.24,101.66c0,2.08-1.69,3.76-3.76,3.76H26.19c-2.08,0-3.76-1.69-3.76-3.76V26.39c0-2.08,1.69-3.76,3.76-3.76h75.28c2.08,0,3.76,1.69,3.76,3.76v75.28ZM49.42,51.58l-13.83,12.45,13.83,12.45c1.54,1.39,1.68,3.77.28,5.32-.74.83-1.77,1.24-2.79,1.24-.89,0-1.8-.32-2.51-.97l-16.94-15.24c-.81-.72-1.26-1.73-1.26-2.79s.45-2.08,1.24-2.79l16.94-15.24c1.54-1.39,3.92-1.26,5.32.28s1.27,3.91-.27,5.31h0ZM100.23,61.23c.79.72,1.24,1.73,1.24,2.79s-.45,2.08-1.24,2.79l-16.94,15.24c-.72.65-1.62.97-2.51.97-1.03,0-2.05-.42-2.79-1.24-1.39-1.54-1.26-3.92.28-5.32l13.81-12.45-13.83-12.45c-1.54-1.39-1.68-3.77-.28-5.32s3.77-1.67,5.32-.28l16.95,15.25ZM74.98,38.71l-15.06,52.7c-.47,1.66-1.98,2.73-3.61,2.73-.34,0-.69-.05-1.04-.15-1.99-.57-3.15-2.65-2.59-4.65l15.06-52.7c.57-1.99,2.65-3.16,4.65-2.59s3.15,2.65,2.59,4.66h0Z"/>
</svg>