<?xml version="1.0" encoding="UTF-8"?>
<svg id="Layer_2" data-name="Layer 2" xmlns="http://www.w3.org/2000/svg" xmlns:xlink="http://www.w3.org/1999/xlink" viewBox="0 0 1000 580">
  <defs>
    <style>
      .cls-1 {
        filter: url(#drop-shadow-1);
      }

      .cls-1, .cls-2 {
        fill: #3667b1;
      }

      .cls-2 {
        stroke: #3667b1;
        stroke-miterlimit: 10;
        stroke-width: .5px;
      }
    </style>
    <filter id="drop-shadow-1" x="37.71" y="50.22" width="429.6" height="482.64" filterUnits="userSpaceOnUse">
      <feOffset dx="13.27" dy="0"/>
      <feGaussianBlur result="blur" stdDeviation="21.39"/>
      <feFlood flood-color="#77787b" flood-opacity=".69"/>
      <feComposite in2="blur" operator="in"/>
      <feComposite in="SourceGraphic"/>
    </filter>
  </defs>
  <g>
    <path class="cls-2" d="M421.46,306.81h-20.4v25.34h-20.02v-88.68h38.51c23.18,0,36.36,11.15,36.36,30.79,0,13.68-5.83,23.56-16.6,28.63l18.88,29.27h-22.68l-14.06-25.34ZM419.56,290.08c11.02,0,17.36-5.07,17.36-15.2s-6.34-14.82-17.36-14.82h-18.5v30.03h18.5Z"/>
    <path class="cls-2" d="M492.68,260.06v19.26h42.82v16.6h-42.82v19.64h48.9v16.6h-68.92v-88.68h67.53v16.6h-47.51Z"/>
    <path class="cls-2" d="M622.39,332.14l-42.95-56.88v56.88h-19.13v-88.68h18.24l43.08,57.01v-57.01h19v88.68h-18.24Z"/>
    <path class="cls-2" d="M697.95,243.46c27.49,0,46.62,18.12,46.62,44.34s-19.38,44.34-47.38,44.34h-36.87v-88.68h37.63ZM680.34,315.29h18.12c14.82,0,25.72-11.15,25.72-27.36s-11.4-27.62-26.6-27.62h-17.23v54.98Z"/>
    <path class="cls-2" d="M777.19,260.06v19.26h42.82v16.6h-42.82v19.64h48.9v16.6h-68.92v-88.68h67.53v16.6h-47.51Z"/>
    <path class="cls-2" d="M884.1,306.81h-20.4v25.34h-20.02v-88.68h38.51c23.18,0,36.36,11.15,36.36,30.79,0,13.68-5.83,23.56-16.6,28.63l18.88,29.27h-22.68l-14.06-25.34ZM882.2,290.08c11.02,0,17.36-5.07,17.36-15.2s-6.34-14.82-17.36-14.82h-18.5v30.03h18.5Z"/>
  </g>
  <g>
    <path class="cls-2" d="M508.13,446.66v22.79h-75.65v-115.62h26.1v92.83h49.55Z"/>
    <path class="cls-2" d="M633.04,411.48c0,33.36-26.76,58.96-62.1,58.96s-62.1-25.43-62.1-58.96,26.76-58.64,62.1-58.64,62.1,25.1,62.1,58.64ZM535.59,411.48c0,20.31,16.35,36.17,35.67,36.17s35.02-15.86,35.02-36.17-15.69-35.84-35.02-35.84-35.67,15.53-35.67,35.84Z"/>
    <path class="cls-2" d="M751.8,410.99v44.43c-12.22,8.92-30.89,15.03-46.91,15.03-35.01,0-61.61-25.43-61.61-58.96s27.09-58.64,63.09-58.64c17.18,0,34.69,6.61,46.41,16.85l-14.7,18.66c-8.59-7.93-20.48-12.88-31.71-12.88-20.48,0-36.34,15.69-36.34,36.01s16.02,36.17,36.5,36.17c6.94,0,15.2-2.48,22.63-6.28v-30.39h22.63Z"/>
    <path class="cls-2" d="M772.24,469.46v-115.62h26.1v115.62h-26.1Z"/>
    <path class="cls-2" d="M920.16,372.01l-15.2,18.5c-7.93-9.08-19.33-15.03-30.06-15.03-19.82,0-35.18,15.36-35.18,35.51s15.36,35.68,35.18,35.68c10.41,0,21.8-5.29,30.06-13.54l15.36,16.68c-12.23,12.55-29.9,20.65-46.74,20.65-34.52,0-60.62-25.6-60.62-59.13s26.59-58.47,61.61-58.47c16.68,0,34.19,7.43,45.59,19.16Z"/>
  </g>
  <path class="cls-1" d="M331.99,338.96c-5.29-7.64-14.7-22.92-44.67-22.92s-60.32,33.36-64.07,38.8c-6.8,9.83-17.08,21.58-22.08,27.46-4.34,5.11-17.3,19.56-23.77,20.15-6.47.59-10.58,0-17.63-7.05-7.05-7.05-6.65-12.14-7.05-19.4-.29-5.29,2.94-10.58,8.23-14.7,3.91-3.04,98-67.22,159.25-112.14,26.45-19.4,71.41-45.59,40.06-82.67-20.49-24.23-70.11-45.22-141.48-51.18-36.34-3.03-65.37,3.04-87.77,37.61-5.99,9.24-5.1,57.81-5.29,68.77-.64,35.99.55,82.58.55,82.58,0,0-19.03,16.68-24.69,22.34-6.17,6.17-12.69,25.85-12.93,34.09-.29,9.99,3.18,31.29,11.76,41.73,10.29,12.54,25.86,18.22,25.86,18.22l-.59,47.8h72.12l2.49-73.67s15.63-21.98,20.03-27.61c4.96-6.34,11.27-12.33,15.28-15.28,4.52-3.33,13.12-2.44,17.05.59,3.54,2.73,9.99,9.99,12.34,14.7,2.35,4.7,42.4,101.29,42.4,101.29h82.29s-52.39-121.86-57.68-129.5ZM197.2,173.03c2.75-17.42,29.17-17.29,86.34,7.57,20.28,8.82,29.99,19.01,32.62,32.62,1.76,9.11,0,21.16-9.2,28.59-24.98,20.17-109.17,69.72-109.17,69.72v-36.13s-3.23-85.62-.59-102.37Z"/>
</svg>