<?xml version="1.0" encoding="UTF-8"?>
<svg id="Layer_2" data-name="Layer 2" xmlns="http://www.w3.org/2000/svg" viewBox="0 0 667.98 778.36">
  <defs>
    <style>
      .cls-1 {
        fill: #3667b1;
      }
    </style>
  </defs>
  <path class="cls-1" d="M529.29,491.72c-11.06-15.98-30.73-47.94-93.42-47.94s-126.13,69.77-133.99,81.13c-14.21,20.55-35.73,45.14-46.17,57.43-9.08,10.68-36.19,40.91-49.71,42.14-13.52,1.23-22.13,0-36.88-14.75-14.75-14.75-13.91-25.38-14.75-40.57-.61-11.06,6.15-22.13,17.21-30.73,8.18-6.36,204.94-140.58,333.03-234.51,55.32-40.57,149.35-95.34,83.77-172.88-42.84-50.66-146.62-94.57-295.87-107.02-76-6.34-136.71,6.35-183.55,78.65-12.52,19.33-10.66,120.9-11.06,143.83-1.33,75.26,1.15,172.7,1.15,172.7,0,0-39.81,34.89-51.63,46.71-12.91,12.91-26.54,54.05-27.04,71.3-.61,20.9,6.66,65.43,24.59,87.28,21.51,26.22,54.09,38.11,54.09,38.11l-1.23,99.96h150.82l5.2-154.07s32.68-45.97,41.9-57.75c10.37-13.26,23.56-25.78,31.96-31.96,9.45-6.96,27.43-5.11,35.65,1.23,7.41,5.72,20.9,20.9,25.81,30.73,4.92,9.83,88.66,211.82,88.66,211.82h172.1s-109.56-254.84-120.62-270.82ZM247.4,144.72c5.75-36.43,61.01-36.15,180.55,15.83,42.41,18.44,62.72,39.76,68.22,68.22,3.69,19.05,0,44.25-19.23,59.78-52.23,42.18-228.31,145.81-228.31,145.81v-75.56s-6.76-179.05-1.23-214.08Z"/>
</svg>