<?xml version="1.0" encoding="UTF-8"?>
<svg id="Layer_1" data-name="Layer 1" xmlns="http://www.w3.org/2000/svg" viewBox="0 0 128 128">
  <defs>
    <style>
      .cls-1 {
        fill: #3667b1;
      }
    </style>
  </defs>
  <rect class="cls-1" x="86.98" y="97.73" width="21.99" height="6.43"/>
  <path class="cls-1" d="M97.98,57.23c-4.89,0-8.87,3.98-8.87,8.87,0,1.72.49,3.39,1.43,4.83,1.06,1.63,1.32,3.26,1.44,4.77l1.57,18.97h8.86l1.57-18.97c.12-1.51.39-3.14,1.44-4.77.94-1.44,1.43-3.11,1.43-4.83,0-4.89-3.98-8.87-8.87-8.87h0Z"/>
  <path class="cls-1" d="M20.77,13.02c-4.27,0-7.75,3.48-7.75,7.75v7.24h15.49v-7.24c0-4.28-3.47-7.75-7.75-7.75Z"/>
  <path class="cls-1" d="M83.92,102.84v-6.65c0-.85.69-1.53,1.53-1.53h5.02l-1.55-18.72c-.1-1.28-.31-2.35-.96-3.36-1.25-1.93-1.92-4.18-1.92-6.49,0-6.58,5.36-11.93,11.94-11.93.2,0,.4,0,.59.01v-26.32h0c0-8.18-6.66-14.84-14.84-14.84H28.29c2.03,1.97,3.29,4.71,3.29,7.75v82.07h52.34ZM86.87,90.35c0,.85-.69,1.53-1.53,1.53h-44.69c-.85,0-1.53-.69-1.53-1.53s.69-1.53,1.53-1.53h44.69c.85,0,1.53.69,1.53,1.53ZM53.04,24.44c3.3-3.3,7.77-5.15,12.43-5.15s9.14,1.85,12.43,5.15h0c3.31,3.29,5.16,7.77,5.16,12.43s-1.86,9.14-5.16,12.43c-3.3,3.3-7.77,5.15-12.43,5.15s-9.14-1.85-12.43-5.15c-3.3-3.3-5.15-7.77-5.15-12.43s1.85-9.14,5.15-12.43ZM40.64,63.22h40.69c.85,0,1.53.69,1.53,1.53s-.69,1.53-1.53,1.53h-40.68c-.85,0-1.53-.69-1.53-1.53h0c0-.85.69-1.53,1.53-1.53ZM40.64,76.02h43.64c.85,0,1.53.69,1.53,1.53s-.69,1.53-1.53,1.53h-43.64c-.85,0-1.53-.69-1.53-1.53h0c0-.85.69-1.53,1.53-1.53Z"/>
  <path class="cls-1" d="M65.26,39.04h.45c.54-.05,1.08.11,1.51.44.43.33.72.82.8,1.36v.81c-.09.54-.37,1.02-.8,1.35-.43.33-.97.49-1.51.44h-.44c-.54.05-1.08-.11-1.51-.44-.43-.33-.72-.82-.8-1.35,0-.78-.41-1.49-1.09-1.88-.67-.39-1.5-.39-2.17,0-.67.39-1.09,1.11-1.09,1.88.04,1.36.52,2.67,1.37,3.73.85,1.06,2.02,1.81,3.34,2.14v.79c0,.78.41,1.49,1.09,1.88.67.39,1.5.39,2.17,0,.67-.39,1.09-1.11,1.09-1.88v-.79c1.32-.33,2.49-1.09,3.34-2.14.85-1.06,1.33-2.37,1.37-3.72v-.81c-.07-1.7-.81-3.29-2.06-4.44-1.25-1.15-2.9-1.76-4.6-1.69h-.45,0c-.54.05-1.08-.11-1.51-.44-.43-.34-.71-.82-.8-1.36v-.79c.09-.54.37-1.02.8-1.35.43-.33.97-.49,1.51-.44h.45c.54-.05,1.08.11,1.51.44.43.33.72.82.8,1.35,0,.78.41,1.49,1.09,1.88.67.39,1.5.39,2.17,0,.67-.39,1.09-1.11,1.09-1.88-.04-1.36-.52-2.67-1.37-3.73-.85-1.06-2.02-1.81-3.34-2.14v-.79c-.02-.77-.43-1.46-1.1-1.84-.67-.38-1.48-.38-2.15,0-.67.38-1.08,1.08-1.1,1.84v.79c-1.32.33-2.49,1.09-3.34,2.14-.85,1.06-1.33,2.37-1.37,3.72v.79c.07,1.7.81,3.3,2.06,4.45,1.25,1.15,2.9,1.76,4.6,1.7Z"/>
  <path class="cls-1" d="M111.11,107.22h-26.26c-2.13,0-3.87,1.74-3.87,3.88v3.88h33.99v-3.88h0c0-2.14-1.74-3.88-3.87-3.88Z"/>
</svg>