<?xml version="1.0" encoding="UTF-8"?>
<svg id="Layer_1" data-name="Layer 1" xmlns="http://www.w3.org/2000/svg" viewBox="0 0 128 128">
  <defs>
    <style>
      .cls-1 {
        fill: #3667b1;
      }
    </style>
  </defs>
  <path class="cls-1" d="M18.19,25.63l6.05,5.58c-7.44,8.84-11.63,20.46-11.63,32.56,0,28.37,22.79,51.16,51.16,51.16,12.09,0,23.72-4.19,32.56-11.63l6.05,6.05,7.44-7.44L26.1,18.19l-7.91,7.44ZM46.56,54c.47,7.91,6.98,13.95,14.42,14.42l7.44,7.44c-.93,1.4-2.79,2.79-4.65,2.33-2.79,0-5.58-1.86-5.58-4.65h-11.16c.47,6.51,5.12,12.09,11.16,13.49v5.58h11.63v-6.05c2.33-.47,4.65-1.86,6.51-3.26l12.09,12.09c-6.51,5.12-14.88,8.37-24.18,8.37-21.86,0-40-17.67-40-40,0-9.3,3.26-17.67,8.37-24.18l13.95,14.42Z"/>
  <path class="cls-1" d="M58.19,35.4v5.58c-.93,0-1.86.47-2.33.93l7.44,7.44h.47c2.79,0,5.58,1.86,5.58,4.65h11.63c-.47-6.51-5.12-11.63-11.16-13.02v-5.58h-11.63Z"/>
  <path class="cls-1" d="M63.77,23.77c21.86,0,40,17.67,40,40,0,7.44-1.86,14.42-5.58,20.46l8.37,8.37c5.58-8.37,8.84-18.14,8.84-28.37,0-28.37-22.79-51.16-51.16-51.16-10.7,0-20.46,3.26-28.37,8.84l8.37,8.37c5.12-4.19,12.09-6.51,19.53-6.51Z"/>
</svg>