<?xml version="1.0" encoding="UTF-8"?>
<svg id="Layer_1" data-name="Layer 1" xmlns="http://www.w3.org/2000/svg" viewBox="0 0 128 128">
  <defs>
    <style>
      .cls-1 {
        fill: #3667b1;
      }
    </style>
  </defs>
  <path class="cls-1" d="M91.76,68.58c-6.15,0-12.05,2.46-16.4,6.81-4.35,4.35-6.79,10.26-6.78,16.41,0,6.15,2.45,12.05,6.81,16.4,4.35,4.35,10.26,6.79,16.41,6.79,6.15,0,12.05-2.45,16.4-6.8,4.35-4.35,6.79-10.25,6.79-16.41-.01-6.15-2.46-12.05-6.82-16.4-4.35-4.35-10.26-6.79-16.41-6.8h0ZM105.23,105.25c-3.57,3.57-8.42,5.58-13.47,5.58-5.05,0-9.9-2.01-13.47-5.58-3.57-3.57-5.58-8.42-5.58-13.47s2.01-9.9,5.58-13.47c3.57-3.57,8.42-5.58,13.47-5.58,5.05,0,9.9,2.01,13.47,5.58,2.37,2.36,4.08,5.31,4.95,8.54.87,3.23.87,6.64,0,9.87-.87,3.23-2.58,6.18-4.95,8.54h0Z"/>
  <path class="cls-1" d="M13.02,43.48v50.09c0,2.35.94,4.61,2.6,6.27,1.66,1.66,3.92,2.6,6.27,2.6h45.06c-2.37-5.5-2.84-11.62-1.34-17.42,1.5-5.79,4.88-10.93,9.62-14.59,4.74-3.66,10.55-5.64,16.54-5.63,1.13,0,2.26.07,3.38.22v-21.54H13.02ZM47.7,52.48c0-.5.2-.98.55-1.34.35-.35.83-.55,1.34-.55h8.97,0c.5,0,.98.2,1.34.55.35.35.55.84.55,1.34v8.96c0,.5-.2.98-.55,1.34-.35.35-.84.55-1.34.55h-8.97c-.5,0-.98-.2-1.34-.55-.35-.35-.55-.83-.55-1.34v-8.96ZM34.44,88.2c0,.5-.2.98-.55,1.33-.35.35-.83.55-1.33.55h-8.97c-.5,0-.98-.2-1.34-.55-.35-.35-.55-.83-.55-1.34v-8.96c0-.5.2-.98.55-1.34.35-.35.84-.55,1.34-.55h8.97c.5,0,.98.2,1.34.55.35.35.55.83.55,1.34v8.96ZM34.44,61.44c0,.5-.2.98-.55,1.34-.35.35-.83.55-1.34.55h-8.97c-.5,0-.98-.2-1.33-.55-.35-.35-.55-.83-.55-1.34v-8.96c0-.5.2-.98.55-1.34.35-.35.83-.55,1.33-.55h8.97c.5,0,.98.2,1.34.55.35.35.55.83.55,1.34v8.96ZM61.51,82.63l-6.75,6.89c-.36.36-.84.56-1.35.57h0c-.51,0-1-.22-1.35-.59l-4.79-4.97c-.47-.49-.64-1.18-.45-1.83.19-.65.71-1.15,1.36-1.31.65-.16,1.35.04,1.81.52l3.44,3.57,5.39-5.5c.48-.46,1.16-.64,1.8-.47s1.14.66,1.33,1.3c.18.64.02,1.32-.42,1.81h0ZM86.47,61.44c0,.5-.2.98-.55,1.34-.35.35-.83.55-1.34.55h-8.98c-.5,0-.98-.2-1.34-.55-.35-.35-.55-.83-.55-1.34v-8.96c0-.5.2-.98.55-1.34.35-.35.83-.55,1.34-.55h8.98c.5,0,.98.2,1.34.55.35.35.55.83.55,1.34v8.96Z"/>
  <path class="cls-1" d="M25.47,81.13h5.19v5.18h-5.19v-5.18Z"/>
  <path class="cls-1" d="M25.47,54.37h5.19v5.18h-5.19v-5.18Z"/>
  <path class="cls-1" d="M77.49,54.37h5.2v5.18h-5.2v-5.18Z"/>
  <path class="cls-1" d="M51.48,54.37h5.19v5.18h-5.19v-5.18Z"/>
  <path class="cls-1" d="M73.91,13.02h3.4v17.73h-3.4V13.02Z"/>
  <path class="cls-1" d="M30.85,13.02h3.4v17.73h-3.4V13.02Z"/>
  <path class="cls-1" d="M95.14,32.64v7.07H13.02v-7.07c0-2.35.94-4.61,2.6-6.27,1.66-1.66,3.92-2.6,6.27-2.6h5.18v7.14c0,.96.38,1.88,1.06,2.56.68.68,1.6,1.06,2.56,1.06h3.72c.96,0,1.88-.38,2.56-1.06.68-.68,1.06-1.6,1.06-2.56v-7.14h32.1v7.14c0,.96.38,1.88,1.06,2.55.68.68,1.6,1.06,2.55,1.06h3.72c.96,0,1.88-.38,2.56-1.06.68-.68,1.06-1.6,1.06-2.56v-7.14h5.18c2.35,0,4.61.93,6.27,2.6,1.66,1.66,2.6,3.92,2.6,6.27h0Z"/>
  <path class="cls-1" d="M102.56,80.97c-2.87-2.87-6.75-4.48-10.81-4.48s-7.94,1.61-10.81,4.48c-2.87,2.87-4.48,6.75-4.48,10.81s1.61,7.94,4.48,10.81c2.87,2.87,6.75,4.48,10.81,4.48s7.94-1.61,10.81-4.48c2.87-2.86,4.49-6.75,4.49-10.81s-1.61-7.94-4.49-10.81h0ZM91.56,89.89h.39c1.47-.06,2.91.47,3.99,1.47,1.08,1,1.73,2.39,1.79,3.86v.71c-.03,1.18-.45,2.31-1.19,3.23-.74.92-1.76,1.57-2.9,1.86v.69c0,.67-.36,1.3-.94,1.64s-1.3.34-1.89,0c-.58-.34-.94-.96-.94-1.64v-.69c-1.15-.29-2.17-.94-2.91-1.86-.74-.92-1.16-2.06-1.19-3.24,0-.67.36-1.3.94-1.64.58-.34,1.3-.34,1.89,0,.58.34.94.96.94,1.64.07.47.32.89.7,1.18.37.29.84.43,1.31.38h.39c.47.04.94-.09,1.31-.38.37-.29.62-.71.7-1.18v-.7c-.07-.47-.32-.89-.7-1.18-.37-.29-.84-.43-1.31-.38h-.39c-1.47.05-2.91-.48-4-1.48-1.08-1-1.73-2.39-1.79-3.87v-.69c.03-1.18.45-2.31,1.19-3.23.74-.92,1.76-1.57,2.9-1.86v-.69c.01-.66.38-1.27.96-1.6.58-.33,1.29-.33,1.86,0,.58.33.94.94.96,1.6v.69c1.15.29,2.17.94,2.91,1.86.74.92,1.16,2.06,1.19,3.24,0,.67-.36,1.3-.94,1.64-.58.34-1.3.34-1.89,0-.58-.34-.94-.96-.94-1.64-.07-.47-.32-.89-.7-1.18-.37-.29-.84-.43-1.31-.38h-.39c-.47-.04-.94.09-1.31.38-.37.29-.62.71-.7,1.18v.69c.07.47.32.89.69,1.18.37.29.84.43,1.31.39h0Z"/>
</svg>