<svg width="34" height="34" viewBox="0 0 34 34" fill="none" xmlns="http://www.w3.org/2000/svg">
<path d="M14.4384 4.82781e-05C11.3882 4.82781e-05 8.41797 0.967778 5.95 2.76147C3.48512 4.55824 1.64878 7.08544 0.705959 9.98863C-0.23686 12.8918 -0.233778 16.0169 0.705959 18.917C1.6457 21.8171 3.48512 24.3474 5.95308 26.138C8.42105 27.9317 11.3912 28.8964 14.4415 28.8964C17.4918 28.8964 20.462 27.9317 22.93 26.138L30.1244 33.3344C30.6974 33.9076 31.5324 34.1326 32.315 33.9199C33.0976 33.7103 33.7077 33.1001 33.9172 32.3173C34.1267 31.5345 33.9018 30.6993 33.3318 30.126L26.1374 22.9297C28.2387 20.0419 29.1939 16.4761 28.821 12.9226C28.4482 9.36916 26.769 6.08072 24.1131 3.6953C21.4572 1.30987 18.0094 -0.00919755 14.4384 4.82781e-05ZM14.4384 24.3659C11.8103 24.3659 9.28684 23.3211 7.42893 21.4627C5.57102 19.6043 4.52653 17.0802 4.52653 14.4513C4.52653 11.8224 5.57102 9.29827 7.42893 7.43986C9.28684 5.58145 11.8103 4.53667 14.4384 4.53667C17.0666 4.53667 19.5901 5.58145 21.448 7.43986C23.3059 9.29827 24.3504 11.8224 24.3504 14.4513C24.3504 17.0802 23.3028 19.6012 21.4449 21.4596C19.587 23.318 17.0666 24.3628 14.4384 24.3659Z" fill="#3667B1"/>
</svg>
