<?xml version="1.0" encoding="UTF-8"?>
<svg id="Layer_1" data-name="Layer 1" xmlns="http://www.w3.org/2000/svg" viewBox="0 0 128 128">
  <defs>
    <style>
      .cls-1 {
        fill: #3667b1;
      }
    </style>
  </defs>
  <path class="cls-1" d="M103.33,47.24l-7.66,1.95c-1.99-7.24-5.86-13.82-12.27-17.93-9.97-6.39-26.61-6.58-36.68-.31-11.26,7-14.16,21.27-14.05,33.64.11,12.78,3.42,26.84,15.51,33.35,12.51,6.73,35.8,5.03,42.09-9.7,3.06-7.16.95-15.31-5.87-19.29-.86,5.94-3.11,11.96-8.09,15.6-7.88,5.76-21.91,4.52-27.2-4.21-2.65-4.36-2.72-10.25-.17-14.68,5.25-9.11,18.38-9.33,27.55-7.94-.75-5.2-3.42-8.9-8.78-9.82-4.91-.84-10.24.44-13.07,4.79l-6.55-4.55c2.77-4.08,6.88-6.92,11.72-7.99,5.66-1.25,12.39-.44,17.14,3.03,5.31,3.88,7.48,10.58,7.74,16.95,7.55,3.14,13.18,9.27,14.52,17.5,2.74,16.81-11.25,29.32-26.77,31.56-17.37,2.51-34.24-2.93-42.38-19.23-8.32-16.67-7.41-45.73,5.49-60.01,10.57-11.69,29.2-14.19,43.75-9.46,12.43,4.04,20.91,14.22,24.03,26.76ZM76.69,66.02c-1.67-.32-3.37-.62-5.07-.74-5.18-.39-15.89-.15-16.6,6.88-.81,8.06,11.28,9.57,16.42,6.04,3.82-2.63,4.97-7.81,5.26-12.18Z"/>
</svg>