<?xml version="1.0" encoding="UTF-8"?>
<svg id="Layer_1" data-name="Layer 1" xmlns="http://www.w3.org/2000/svg" viewBox="0 0 128 128">
  <defs>
    <style>
      .cls-1 {
        fill: #3667b1;
      }
    </style>
  </defs>
  <circle class="cls-1" cx="34.41" cy="34.43" r="8.94"/>
  <rect class="cls-1" x="25.34" y="50.96" width="18.04" height="51.55"/>
  <path class="cls-1" d="M96.7,54.68c-4.75-4-11.25-3.66-13.82-3.72-3.07-.06-8.52,1.48-10.63,2.8-2.08,1.29-3.38,3.05-4.09,4.27l-.09-7.07h-14.38v51.55h15.03l-.31-24.24c.05-2.26.53-10.38,4.77-13.25,3.25-2.21,9.23-1.7,11.21,1.02,1.95,2.68,2.72,6.33,2.72,8.4s.08,28.07.08,28.07h15.48v-31.98s.18-10.68-5.97-15.85Z"/>
</svg>