<?xml version="1.0" encoding="UTF-8"?>
<svg id="Layer_1" data-name="Layer 1" xmlns="http://www.w3.org/2000/svg" viewBox="0 0 128 128">
  <defs>
    <style>
      .cls-1 {
        fill: #3667b1;
      }
    </style>
  </defs>
  <circle class="cls-1" cx="64" cy="64" r="15.61"/>
  <path class="cls-1" d="M87.69,21.61h-47.39c-10.28,0-18.7,8.41-18.7,18.7v47.39c0,10.28,8.41,18.7,18.7,18.7h47.39c10.28,0,18.7-8.41,18.7-18.7v-47.39c0-10.28-8.41-18.7-18.7-18.7ZM84.64,72.35c-2.09,5.68-6.6,10.19-12.29,12.29-18.58,6.84-35.83-10.41-28.99-28.99,2.09-5.68,6.6-10.19,12.29-12.29,18.58-6.84,35.83,10.41,28.99,28.99ZM88.02,45.94c-2.84,0-5.14-2.3-5.14-5.14s2.3-5.14,5.14-5.14,5.14,2.3,5.14,5.14-2.3,5.14-5.14,5.14Z"/>
</svg>